<?xml version="1.0" encoding="UTF-8"?>
<svg width="228px" height="280px" viewBox="0 0 228 280" version="1.1" xmlns="http://www.w3.org/2000/svg" xmlns:xlink="http://www.w3.org/1999/xlink">
    <title>cat</title>
    <g id="ducky-cat" stroke="none" stroke-width="1" fill="none" fill-rule="evenodd">
        <g id="ducky-cat" transform="translate(2.000000, 2.000000)">
            <path d="M208,50 C122.666667,10 74.6666667,-6 64,2 C48,14 76,50 76,66 C76,82 68,82 60,106 C52,130 56,130 52,146 C48,162 0,166 0,190 C0,214 122.87565,230.238243 152,242 C171.416233,249.841171 190.0829,260.507838 208,274 L208,50 Z" stroke="#000" stroke-width="4" fill="#FFF"/>
            <circle id="eye" stroke="#000" stroke-width="4" fill="#000" cx="138" cy="82" r="18" opacity="0">
                <animate attributeName="opacity" values="1; 1; 1; 1; 1; 1; 1; 1; 1; 1; 1; 1; 1; 1; 1; 1; 1; 1; 0; 0; 0; 0; 0; 0;" dur="1s" repeatCount="indefinite"/>
            </circle>
            <circle id="eye" stroke="#000" stroke-width="4" fill="#000" cx="110" cy="172" r="18" opacity="0">
                <animate attributeName="opacity" values="1; 1; 1; 1; 1; 1; 1; 1; 1; 1; 1; 1; 1; 1; 1; 1; 1; 1; 0; 0; 0; 0; 0; 0;" dur="1s" repeatCount="indefinite"/>
            </circle>
            <line x1="120" y1="82" x2="156" y2="82" id="-y-" stroke="#000" stroke-width="4" fill="#000" stroke-linecap="round" stroke-linejoin="round" transform="translate(138.000000, 82.000000) rotate(105.000000) translate(-138.000000, -82.000000)"/>
            <line x1="92" y1="172" x2="128" y2="172" id="-y-" stroke="#000" stroke-width="4" fill="#000" stroke-linecap="round" stroke-linejoin="round" transform="translate(110.000000, 172.000000) rotate(105.000000) translate(-110.000000, -172.000000)"/>
        </g>
        <text font-weight="bold" transform="rotate(89 223.1147918701172,161.54447937011722) matrix(1,0,0,0.9148485064506531,0,14.972079424078402) " xml:space="preserve" text-anchor="middle" font-family="serif" font-size="24" id="svg_3" y="169.08419" x="223.09029" stroke-linecap="null" stroke-linejoin="null" stroke-dasharray="null" stroke-width="0" fill="#000">d u c k y . v i p</text>
    </g>
</svg>